<?xml version="1.0" encoding="utf-8"?><svg viewBox="0 0 47 52" xmlns="http://www.w3.org/2000/svg" xmlns:xlink="http://www.w3.org/1999/xlink"><style>:root>svg{display:none}:root>svg:target{display:block}</style><svg viewBox="0 0 26 38" id="avocado" xmlns="http://www.w3.org/2000/svg"><defs><style>.acls-1{fill:#fff;fill-rule:evenodd}</style></defs><path class="acls-1" d="M13 14.42c-3.36 0-6.08 4.95-6.08 9.71s2.72 7.54 6.08 7.54 6.09-2.77 6.09-7.54-2.73-9.71-6.09-9.71zm12.9 8.99c-.37-3.44-1.85-6.63-3.16-9.45-.38-.82-.74-1.59-1.05-2.33-.72-1.7-1.3-3.41-1.82-4.91-.93-2.73-1.6-4.69-2.69-5.63A4.058 4.058 0 0014.49 0a3.663 3.663 0 00-1.47.31A3.594 3.594 0 0011.55 0a4.058 4.058 0 00-2.69 1.09c-1.11.95-1.79 2.94-2.73 5.68-.5 1.47-1.07 3.13-1.78 4.83-.29.71-.63 1.46-.99 2.26a34.469 34.469 0 00-3.21 9.52C-.39 27.46.55 31 2.84 33.6A13.942 13.942 0 0012.95 38h.08a13.773 13.773 0 009.94-4.29 12.873 12.873 0 002.93-10.3zm-4.82 8.61a11.318 11.318 0 01-7.98 3.45h-.16a11.477 11.477 0 01-8.19-3.53c-1.83-2.08-2.53-4.85-2.08-8.23a32.628 32.628 0 013.01-8.82c.36-.81.71-1.58 1.02-2.32.74-1.77 1.32-3.48 1.84-4.98.68-2.01 1.39-4.08 1.98-4.58a1.672 1.672 0 011.03-.49 1.4 1.4 0 01.75.27l.72.51.73-.51a1.3 1.3 0 011.78.22c.56.48 1.26 2.54 1.94 4.52.53 1.55 1.12 3.3 1.88 5.08.33.78.69 1.57 1.08 2.41 1.23 2.64 2.62 5.64 2.95 8.66.37 3.44-.41 6.24-2.3 8.34z"/></svg><svg viewBox="0 0 43.62 44" id="communicate" xmlns="http://www.w3.org/2000/svg"><defs><style>.bcls-1{fill:#fff;fill-rule:evenodd}</style></defs><path class="bcls-1" d="M10.89 12.83a3.67 3.67 0 103.64 3.67 3.651 3.651 0 00-3.64-3.67zm0 5.5a1.83 1.83 0 111.82-1.83 1.829 1.829 0 01-1.82 1.83zm10.91-5.5a3.67 3.67 0 103.64 3.67 3.651 3.651 0 00-3.64-3.67zm0 5.5a1.83 1.83 0 111.82-1.83 1.829 1.829 0 01-1.82 1.83zm10.91-5.5a3.67 3.67 0 103.64 3.67 3.66 3.66 0 00-3.64-3.67zm0 5.5a1.83 1.83 0 111.82-1.83 1.829 1.829 0 01-1.82 1.83zM38.17 0H5.44A5.482 5.482 0 00-.02 5.5v22A5.482 5.482 0 005.44 33h10.91l-3.64 11 16.36-11h9.1a5.474 5.474 0 005.45-5.5v-22A5.474 5.474 0 0038.17 0zm3.63 27.5a3.651 3.651 0 01-3.63 3.67h-10l-12.73 9.16 3.63-9.16H5.44A3.653 3.653 0 011.8 27.5v-22a3.66 3.66 0 013.64-3.67h32.73A3.658 3.658 0 0141.8 5.5v22z"/></svg><svg viewBox="0 0 47 33" id="connect" xmlns="http://www.w3.org/2000/svg"><defs><style>.ccls-1{fill:#fff;fill-rule:evenodd}</style></defs><path class="ccls-1" d="M43.213 20.49a12.206 12.206 0 00.43-3.17A12.483 12.483 0 0031.054 4.95a12.726 12.726 0 00-5.025 1.03A10.1 10.1 0 006.714 9.9a9.224 9.224 0 00.111 1.07A11.515 11.515 0 0011.75 33h28.536A6.661 6.661 0 0047 26.4a6.562 6.562 0 00-3.787-5.91zm-2.927 10.86H11.75a9.868 9.868 0 01-4.22-18.88l1.094-.5-.131-1.17c-.014-.13-.03-.25-.047-.37a3.964 3.964 0 01-.053-.53 8.412 8.412 0 0116.1-3.26l.668 1.52 1.544-.67a11.043 11.043 0 014.354-.89 10.829 10.829 0 0110.91 10.72 10.533 10.533 0 01-.374 2.74l-.352 1.31 1.239.6a4.9 4.9 0 012.844 4.43 5 5 0 01-5.04 4.95z"/></svg><svg viewBox="0 0 35 52" id="drop" xmlns="http://www.w3.org/2000/svg"><defs><style>.dcls-1{fill:#fff;fill-opacity:0;stroke:#fd634e;stroke-linejoin:round;stroke-width:5px;fill-rule:evenodd}</style></defs><path class="dcls-1" d="M32.5 34.917a15.006 15.006 0 01-30 0c0-8.058 15-32.427 15-32.427s15 24.369 15 32.427z"/></svg><svg viewBox="0 0 18 26" id="drop-white" xmlns="http://www.w3.org/2000/svg"><defs><style>.ecls-1{fill:#fff;fill-opacity:0;stroke:#e3e9ea;stroke-linejoin:round;stroke-width:3px;fill-rule:evenodd}</style></defs><path class="ecls-1" d="M16.5 17.36a7.509 7.509 0 01-15 0C1.5 13.42 9 1.5 9 1.5s7.5 11.92 7.5 15.86z"/></svg><svg viewBox="0 0 32 32" id="human" xmlns="http://www.w3.org/2000/svg"><defs><style>.fcls-1{fill:#e3e9ea;fill-rule:evenodd}</style></defs><path class="fcls-1" d="M32 30.45A1.523 1.523 0 0130.5 32h-29A1.523 1.523 0 010 30.45s0-5.65 3.994-7.7c2.527-1.3 1.554-.24 4.656-1.57a36.224 36.224 0 003.838-1.79l.029-3.06s-1.162-.91-1.523-3.79c-.727.21-.967-.88-1.01-1.58-.039-.68-.421-2.79.466-2.6a19.4 19.4 0 01-.248-3.35A5.945 5.945 0 0116.024 0c3.993.18 5.575 2.65 5.8 5.01a19.358 19.358 0 01-.259 3.35c.888-.19.5 1.92.459 2.59-.039.7-.285 1.8-1.01 1.58-.363 2.88-1.525 3.79-1.525 3.79l.027 3.04s.735.43 3.838 1.76 2.129.34 4.656 1.63c3.994 2.05 3.994 7.7 3.994 7.7z"/></svg><svg viewBox="0 0 43.625 40.34" id="resources" xmlns="http://www.w3.org/2000/svg"><defs><style>.gcls-1{fill:#fff;fill-rule:evenodd}</style></defs><path class="gcls-1" d="M40 5.5H3.636A3.651 3.651 0 000 9.17v27.5a3.649 3.649 0 003.636 3.66H40a3.649 3.649 0 003.636-3.66V9.17A3.651 3.651 0 0040 5.5zm1.818 31.17A1.824 1.824 0 0140 38.5H3.636a1.824 1.824 0 01-1.818-1.83v-7.34h40v7.34zm0-9.17h-40v-9.17h40v9.17zm0-11h-40V9.17a1.827 1.827 0 011.818-1.84H40a1.827 1.827 0 011.818 1.84v7.33zM18.182 1.83h7.273a1.827 1.827 0 011.818 1.84h1.818A3.651 3.651 0 0025.455 0h-7.273a3.652 3.652 0 00-3.637 3.67h1.819a1.827 1.827 0 011.818-1.84z"/></svg><svg viewBox="0 0 32 38" id="strawberry" xmlns="http://www.w3.org/2000/svg"><defs><style>.hcls-1{fill:#e3e9ea;fill-rule:evenodd}</style></defs><path class="hcls-1" d="M29.031 10.22a8.657 8.657 0 00-6.87-3.16c-.143 0-.284.01-.426.02 4.124-1.78 4.476-5.13 4.476-5.13-5.406-.62-7.859 2.06-8.929 4.09A12.859 12.859 0 0015.247 0l-2.086 1.46a9.8 9.8 0 011.505 4.19c-1.173-1.97-3.647-4.28-8.709-3.7 0 0 .353 3.36 4.5 5.14-.2-.01-.407-.03-.614-.03a8.657 8.657 0 00-6.869 3.16c-4.436 5.36-3.871 12.5 1.549 19.59 1.721 2.25 3.348 4.05 3.6 4.33.369.46 3.25 3.86 7.429 3.86a2.62 2.62 0 00.28-.01h.352a2.62 2.62 0 00.28.01c4.18 0 7.061-3.4 7.43-3.86.248-.28 1.875-2.08 3.6-4.33 5.406-7.09 5.973-14.23 1.537-19.59zm-7.578.82a1.259 1.259 0 01.96 1.71 7.267 7.267 0 01-.96 1.8 7.221 7.221 0 01-.958-1.83 1.24 1.24 0 01.958-1.68zM4.625 14.69a1.259 1.259 0 01.961 1.71 7.255 7.255 0 01-.961 1.8 7.2 7.2 0 01-.957-1.83 1.239 1.239 0 01.957-1.68zm1.6 9.4a7.291 7.291 0 01-.961 1.8 7.288 7.288 0 01-.957-1.82 1.121 1.121 0 111.916.02zm3.494 5.07a7.425 7.425 0 01-.96 1.81 7.43 7.43 0 01-.958-1.83 1.121 1.121 0 111.916.02zm.023-10.21a7.449 7.449 0 01-.961 1.81 7.443 7.443 0 01-.957-1.83 1.121 1.121 0 111.916.02zm-.433-5.86a1.121 1.121 0 111.918.02 7.425 7.425 0 01-.96 1.81 7.43 7.43 0 01-.96-1.83zm1.259 11.45a1.239 1.239 0 01.957-1.68 1.259 1.259 0 01.961 1.71 7.255 7.255 0 01-.961 1.8 7.233 7.233 0 01-.959-1.83zm3.3 8.74a7.475 7.475 0 01-.961 1.8 7.443 7.443 0 01-.957-1.83 1.24 1.24 0 01.957-1.68 1.259 1.259 0 01.956 1.71zm1.435-14.12a1.259 1.259 0 01.961 1.71 7.291 7.291 0 01-.961 1.8 7.2 7.2 0 01-.957-1.83 1.239 1.239 0 01.954-1.68zm1.052 9.37a7.291 7.291 0 01-.961 1.8 7.2 7.2 0 01-.957-1.83 1.242 1.242 0 01.957-1.68 1.259 1.259 0 01.956 1.71zm.606-14.14a7.255 7.255 0 01-.961 1.8 7.233 7.233 0 01-.957-1.83A1.24 1.24 0 0116 12.68a1.259 1.259 0 01.956 1.71zm2.062 18.49a7.291 7.291 0 01-.961 1.8 7.233 7.233 0 01-.957-1.83 1.239 1.239 0 01.957-1.68 1.259 1.259 0 01.956 1.71zm1.425-8.61a7.412 7.412 0 01-.961 1.81 7.443 7.443 0 01-.957-1.83 1.121 1.121 0 111.913.02zm2.759 5.51a7.3 7.3 0 01-.96 1.8 7.221 7.221 0 01-.958-1.83 1.239 1.239 0 01.958-1.68 1.259 1.259 0 01.953 1.71zm.364-10.58a7.513 7.513 0 01-.961 1.8 7.443 7.443 0 01-.957-1.83 1.239 1.239 0 01.957-1.68 1.259 1.259 0 01.956 1.71zm4.518 4.86a7.291 7.291 0 01-.961 1.8 7.2 7.2 0 01-.957-1.83 1.239 1.239 0 01.957-1.68 1.259 1.259 0 01.956 1.71zm.333-7.66a7.255 7.255 0 01-.961 1.8 7.233 7.233 0 01-.957-1.83 1.24 1.24 0 01.957-1.68 1.259 1.259 0 01.956 1.71z"/></svg><svg viewBox="0 0 43.656 44" id="training" xmlns="http://www.w3.org/2000/svg"><defs><style>.icls-1{fill:#fff;fill-rule:evenodd}</style></defs><path class="icls-1" d="M19.554 26.89a4.532 4.532 0 006.209-1.68l3.791-15.79-11.664 11.2a4.614 4.614 0 001.664 6.27zm-.2-5.14l6.974-6.7-2.267 9.44a2.716 2.716 0 01-3.6.81 2.765 2.765 0 01-1.103-3.55zM21.823 0a22 22 0 1021.818 22A21.91 21.91 0 0021.827 0zm0 42.17A20.074 20.074 0 011.846 22.92h3.613v-1.84H1.866a20.139 20.139 0 015.2-12.66l2.545 2.56 1.285-1.3-2.543-2.56a19.837 19.837 0 0112.562-5.26V5.5h1.819V1.86a19.837 19.837 0 0112.562 5.26l-2.543 2.56 1.285 1.3 2.545-2.56a20.139 20.139 0 015.2 12.66H38.19v1.84h3.613a20.074 20.074 0 01-19.976 19.25z"/></svg></svg>