<?xml version="1.0" encoding="utf-8"?><svg viewBox="0 0 47 44" xmlns="http://www.w3.org/2000/svg" xmlns:xlink="http://www.w3.org/1999/xlink"><style>:root>svg{display:none}:root>svg:target{display:block}</style><svg viewBox="0 0 43.62 44" id="communicate" xmlns="http://www.w3.org/2000/svg"><defs><style>.acls-1{fill:#fff;fill-rule:evenodd}</style></defs><path class="acls-1" d="M10.89 12.83a3.67 3.67 0 103.64 3.67 3.651 3.651 0 00-3.64-3.67zm0 5.5a1.83 1.83 0 111.82-1.83 1.829 1.829 0 01-1.82 1.83zm10.91-5.5a3.67 3.67 0 103.64 3.67 3.651 3.651 0 00-3.64-3.67zm0 5.5a1.83 1.83 0 111.82-1.83 1.829 1.829 0 01-1.82 1.83zm10.91-5.5a3.67 3.67 0 103.64 3.67 3.66 3.66 0 00-3.64-3.67zm0 5.5a1.83 1.83 0 111.82-1.83 1.829 1.829 0 01-1.82 1.83zM38.17 0H5.44A5.482 5.482 0 00-.02 5.5v22A5.482 5.482 0 005.44 33h10.91l-3.64 11 16.36-11h9.1a5.474 5.474 0 005.45-5.5v-22A5.474 5.474 0 0038.17 0zm3.63 27.5a3.651 3.651 0 01-3.63 3.67h-10l-12.73 9.16 3.63-9.16H5.44A3.653 3.653 0 011.8 27.5v-22a3.66 3.66 0 013.64-3.67h32.73A3.658 3.658 0 0141.8 5.5v22z"/></svg><svg viewBox="0 0 47 33" id="connect" xmlns="http://www.w3.org/2000/svg"><defs><style>.bcls-1{fill:#fff;fill-rule:evenodd}</style></defs><path class="bcls-1" d="M43.213 20.49a12.206 12.206 0 00.43-3.17A12.483 12.483 0 0031.054 4.95a12.726 12.726 0 00-5.025 1.03A10.1 10.1 0 006.714 9.9a9.224 9.224 0 00.111 1.07A11.515 11.515 0 0011.75 33h28.536A6.661 6.661 0 0047 26.4a6.562 6.562 0 00-3.787-5.91zm-2.927 10.86H11.75a9.868 9.868 0 01-4.22-18.88l1.094-.5-.131-1.17c-.014-.13-.03-.25-.047-.37a3.964 3.964 0 01-.053-.53 8.412 8.412 0 0116.1-3.26l.668 1.52 1.544-.67a11.043 11.043 0 014.354-.89 10.829 10.829 0 0110.91 10.72 10.533 10.533 0 01-.374 2.74l-.352 1.31 1.239.6a4.9 4.9 0 012.844 4.43 5 5 0 01-5.04 4.95z"/></svg><svg viewBox="0 0 43.625 40.34" id="resources" xmlns="http://www.w3.org/2000/svg"><defs><style>.ccls-1{fill:#fff;fill-rule:evenodd}</style></defs><path class="ccls-1" d="M40 5.5H3.636A3.651 3.651 0 000 9.17v27.5a3.649 3.649 0 003.636 3.66H40a3.649 3.649 0 003.636-3.66V9.17A3.651 3.651 0 0040 5.5zm1.818 31.17A1.824 1.824 0 0140 38.5H3.636a1.824 1.824 0 01-1.818-1.83v-7.34h40v7.34zm0-9.17h-40v-9.17h40v9.17zm0-11h-40V9.17a1.827 1.827 0 011.818-1.84H40a1.827 1.827 0 011.818 1.84v7.33zM18.182 1.83h7.273a1.827 1.827 0 011.818 1.84h1.818A3.651 3.651 0 0025.455 0h-7.273a3.652 3.652 0 00-3.637 3.67h1.819a1.827 1.827 0 011.818-1.84z"/></svg><svg viewBox="0 0 43.656 44" id="training" xmlns="http://www.w3.org/2000/svg"><defs><style>.dcls-1{fill:#fff;fill-rule:evenodd}</style></defs><path class="dcls-1" d="M19.554 26.89a4.532 4.532 0 006.209-1.68l3.791-15.79-11.664 11.2a4.614 4.614 0 001.664 6.27zm-.2-5.14l6.974-6.7-2.267 9.44a2.716 2.716 0 01-3.6.81 2.765 2.765 0 01-1.103-3.55zM21.823 0a22 22 0 1021.818 22A21.91 21.91 0 0021.827 0zm0 42.17A20.074 20.074 0 011.846 22.92h3.613v-1.84H1.866a20.139 20.139 0 015.2-12.66l2.545 2.56 1.285-1.3-2.543-2.56a19.837 19.837 0 0112.562-5.26V5.5h1.819V1.86a19.837 19.837 0 0112.562 5.26l-2.543 2.56 1.285 1.3 2.545-2.56a20.139 20.139 0 015.2 12.66H38.19v1.84h3.613a20.074 20.074 0 01-19.976 19.25z"/></svg></svg>