<svg xmlns="http://www.w3.org/2000/svg" width="26" height="38" viewBox="0 0 26 38">
  <defs>
    <style>
      .cls-1 {
        fill: #fff;
        fill-rule: evenodd;
      }
    </style>
  </defs>
  <path class="cls-1" d="M1342,3190.42c-3.36,0-6.08,4.95-6.08,9.71s2.72,7.54,6.08,7.54,6.09-2.77,6.09-7.54S1345.36,3190.42,1342,3190.42Zm12.9,8.99c-0.37-3.44-1.85-6.63-3.16-9.45-0.38-.82-0.74-1.59-1.05-2.33-0.72-1.7-1.3-3.41-1.82-4.91-0.93-2.73-1.6-4.69-2.69-5.63a4.058,4.058,0,0,0-2.69-1.09,3.663,3.663,0,0,0-1.47.31,3.594,3.594,0,0,0-1.47-.31,4.058,4.058,0,0,0-2.69,1.09c-1.11.95-1.79,2.94-2.73,5.68-0.5,1.47-1.07,3.13-1.78,4.83-0.29.71-.63,1.46-0.99,2.26a34.469,34.469,0,0,0-3.21,9.52c-0.54,4.08.4,7.62,2.69,10.22a13.942,13.942,0,0,0,10.11,4.4h0.08a13.773,13.773,0,0,0,9.94-4.29A12.873,12.873,0,0,0,1354.9,3199.41Zm-4.82,8.61a11.318,11.318,0,0,1-7.98,3.45h-0.16a11.477,11.477,0,0,1-8.19-3.53c-1.83-2.08-2.53-4.85-2.08-8.23a32.628,32.628,0,0,1,3.01-8.82c0.36-.81.71-1.58,1.02-2.32,0.74-1.77,1.32-3.48,1.84-4.98,0.68-2.01,1.39-4.08,1.98-4.58a1.672,1.672,0,0,1,1.03-.49,1.4,1.4,0,0,1,.75.27l0.72,0.51,0.73-.51a1.3,1.3,0,0,1,1.78.22c0.56,0.48,1.26,2.54,1.94,4.52,0.53,1.55,1.12,3.3,1.88,5.08,0.33,0.78.69,1.57,1.08,2.41,1.23,2.64,2.62,5.64,2.95,8.66C1352.75,3203.12,1351.97,3205.92,1350.08,3208.02Z" transform="translate(-1329 -3176)"/>
</svg>
