<svg xmlns="http://www.w3.org/2000/svg" width="32" height="32" viewBox="0 0 32 32">
  <defs>
    <style>
      .cls-1 {
        fill: #e3e9ea;
        fill-rule: evenodd;
      }
    </style>
  </defs>
  <path class="cls-1" d="M582,2565.45h0a1.523,1.523,0,0,1-1.5,1.55h-29a1.523,1.523,0,0,1-1.5-1.55h0s0-5.65,3.994-7.7c2.527-1.3,1.554-.24,4.656-1.57a36.224,36.224,0,0,0,3.838-1.79l0.029-3.06s-1.162-.91-1.523-3.79c-0.727.21-.967-0.88-1.01-1.58-0.039-.68-0.421-2.79.466-2.6a19.4,19.4,0,0,1-.248-3.35,5.945,5.945,0,0,1,5.822-5.01c3.993,0.18,5.575,2.65,5.8,5.01a19.358,19.358,0,0,1-.259,3.35c0.888-.19.5,1.92,0.459,2.59-0.039.7-.285,1.8-1.01,1.58-0.363,2.88-1.525,3.79-1.525,3.79l0.027,3.04s0.735,0.43,3.838,1.76,2.129,0.34,4.656,1.63c3.994,2.05,3.994,7.7,3.994,7.7h0Z" transform="translate(-550 -2535)"/>
</svg>
