<svg xmlns="http://www.w3.org/2000/svg" width="32" height="38" viewBox="0 0 32 38">
  <defs>
    <style>
      .cls-1 {
        fill: #e3e9ea;
        fill-rule: evenodd;
      }
    </style>
  </defs>
  <path class="cls-1" d="M938.031,3185.22a8.657,8.657,0,0,0-6.87-3.16c-0.143,0-.284.01-0.426,0.02,4.124-1.78,4.476-5.13,4.476-5.13-5.406-.62-7.859,2.06-8.929,4.09a12.859,12.859,0,0,0-2.035-6.04l-2.086,1.46a9.8,9.8,0,0,1,1.505,4.19c-1.173-1.97-3.647-4.28-8.709-3.7,0,0,.353,3.36,4.5,5.14-0.2-.01-0.407-0.03-0.614-0.03a8.657,8.657,0,0,0-6.869,3.16c-4.436,5.36-3.871,12.5,1.549,19.59,1.721,2.25,3.348,4.05,3.6,4.33,0.369,0.46,3.25,3.86,7.429,3.86a2.62,2.62,0,0,0,.28-0.01h0.352a2.62,2.62,0,0,0,.28.01c4.18,0,7.061-3.4,7.43-3.86,0.248-.28,1.875-2.08,3.6-4.33C941.9,3197.72,942.467,3190.58,938.031,3185.22Zm-7.578.82a1.259,1.259,0,0,1,.96,1.71,7.267,7.267,0,0,1-.96,1.8,7.221,7.221,0,0,1-.958-1.83A1.24,1.24,0,0,1,930.453,3186.04Zm-16.828,3.65a1.259,1.259,0,0,1,.961,1.71,7.255,7.255,0,0,1-.961,1.8,7.2,7.2,0,0,1-.957-1.83A1.239,1.239,0,0,1,913.625,3189.69Zm1.6,9.4a7.291,7.291,0,0,1-.961,1.8,7.288,7.288,0,0,1-.957-1.82A1.121,1.121,0,1,1,915.223,3199.09Zm3.494,5.07a7.425,7.425,0,0,1-.96,1.81,7.43,7.43,0,0,1-.958-1.83A1.121,1.121,0,1,1,918.717,3204.16Zm0.023-10.21a7.449,7.449,0,0,1-.961,1.81,7.443,7.443,0,0,1-.957-1.83A1.121,1.121,0,1,1,918.74,3193.95Zm-0.433-5.86a1.121,1.121,0,1,1,1.918.02,7.425,7.425,0,0,1-.96,1.81A7.43,7.43,0,0,1,918.307,3188.09Zm1.259,11.45a1.239,1.239,0,0,1,.957-1.68,1.259,1.259,0,0,1,.961,1.71,7.255,7.255,0,0,1-.961,1.8A7.233,7.233,0,0,1,919.566,3199.54Zm3.3,8.74a7.475,7.475,0,0,1-.961,1.8,7.443,7.443,0,0,1-.957-1.83,1.24,1.24,0,0,1,.957-1.68A1.259,1.259,0,0,1,922.863,3208.28Zm1.435-14.12a1.259,1.259,0,0,1,.961,1.71,7.291,7.291,0,0,1-.961,1.8,7.2,7.2,0,0,1-.957-1.83A1.239,1.239,0,0,1,924.3,3194.16Zm1.052,9.37a7.291,7.291,0,0,1-.961,1.8,7.2,7.2,0,0,1-.957-1.83,1.242,1.242,0,0,1,.957-1.68A1.259,1.259,0,0,1,925.35,3203.53Zm0.606-14.14a7.255,7.255,0,0,1-.961,1.8,7.233,7.233,0,0,1-.957-1.83,1.24,1.24,0,0,1,.957-1.68A1.259,1.259,0,0,1,925.956,3189.39Zm2.062,18.49a7.291,7.291,0,0,1-.961,1.8,7.233,7.233,0,0,1-.957-1.83,1.239,1.239,0,0,1,.957-1.68A1.259,1.259,0,0,1,928.018,3207.88Zm1.425-8.61a7.412,7.412,0,0,1-.961,1.81,7.443,7.443,0,0,1-.957-1.83A1.121,1.121,0,1,1,929.443,3199.27Zm2.759,5.51a7.3,7.3,0,0,1-.96,1.8,7.221,7.221,0,0,1-.958-1.83,1.239,1.239,0,0,1,.958-1.68A1.259,1.259,0,0,1,932.2,3204.78Zm0.364-10.58a7.513,7.513,0,0,1-.961,1.8,7.443,7.443,0,0,1-.957-1.83,1.239,1.239,0,0,1,.957-1.68A1.259,1.259,0,0,1,932.566,3194.2Zm4.518,4.86a7.291,7.291,0,0,1-.961,1.8,7.2,7.2,0,0,1-.957-1.83,1.239,1.239,0,0,1,.957-1.68A1.259,1.259,0,0,1,937.084,3199.06Zm0.333-7.66a7.255,7.255,0,0,1-.961,1.8,7.233,7.233,0,0,1-.957-1.83,1.24,1.24,0,0,1,.957-1.68A1.259,1.259,0,0,1,937.417,3191.4Z" transform="translate(-909 -3175)"/>
</svg>
